<svg xmlns="http://www.w3.org/2000/svg" width="232" height="411" viewBox="0 0 232 411">
  <defs>
    <style>
      .cls-1 {
        fill: #fff;
        stroke: #eaeaea;
        stroke-width: 2px;
        fill-rule: evenodd;
      }
    </style>
  </defs>
  <path id="Плашка" class="cls-1" d="M545,1147H775v409H545V1147Zm0-19.5a20,20,0,1,1-20,20A20,20,0,0,1,545,1127.5Zm229.969-.5a20,20,0,1,1-20,20A20,20,0,0,1,774.969,1127ZM775,1536a20,20,0,1,1-20,20A20,20,0,0,1,775,1536Zm-230.2-.4a20,20,0,1,1-20,20A20,20,0,0,1,544.8,1535.6Z" transform="translate(-544 -1146)"/>
</svg>
