<svg xmlns="http://www.w3.org/2000/svg" width="230" height="229" viewBox="0 0 230 229">
  <defs>
    <style>
      .cls-1 {
        fill: #fff;
        fill-rule: evenodd;
      }
    </style>
  </defs>
  <path id="Плашка" class="cls-1" d="M845,697h230V926H845V697Zm0-20a20,20,0,1,1-20,20A20,20,0,0,1,845,677Zm229.5-.5a20,20,0,1,1-20,20A20,20,0,0,1,1074.5,676.5ZM1075,906a20,20,0,1,1-20,20A20,20,0,0,1,1075,906Zm-229.75.75c11.046,0,20,8.506,20,19s-8.954,19-20,19-20-8.507-20-19S834.2,906.75,845.25,906.75Z" transform="translate(-845 -697)"/>
</svg>
